<?xml version="1.0" encoding="iso-8859-1"?>
<!-- Uploaded to: SVG Repo, www.svgrepo.com, Generator: SVG Repo Mixer Tools -->
<svg version="1.1" id="Layer_1" xmlns="http://www.w3.org/2000/svg" xmlns:xlink="http://www.w3.org/1999/xlink" 
	 viewBox="0 0 512 512" xml:space="preserve">
<rect x="46.688" y="272.16" width="418.64" height="158.416"/>
<path d="M46.688,512h370.816c26.376-0.096,47.728-21.448,47.824-47.824v-17.6H46.688V512z"/>
<rect x="46.688" y="430.544" style="fill:#E21B1B;" width="418.64" height="16"/>
<path d="M94.512,0C68.136,0.096,46.784,21.448,46.688,47.824v208.304h418.64V0H94.512z"/>
<g style="opacity:0.25;">
	<path style="fill:#FFFFFF;" d="M94.512,0c-26.376,0.088-47.744,21.448-47.84,47.824v113.024L207.536,0H94.512z"/>
</g>
<g>
	<path style="fill:#FFFFFF;" d="M172.336,311.84v78.752h-14.944v-34.048h-36.928v34.048H105.52V311.84h14.944V344h36.928v-32.16
		H172.336z"/>
	<path style="fill:#FFFFFF;" d="M217.6,325.216v65.376h-14.96v-65.376h-22.736V311.84h61.216v13.376H217.6z"/>
	<path style="fill:#FFFFFF;" d="M340.752,311.84v78.752h-14.944v-42.928c0-3.424,0.096-7.312,0.288-11.664l0.288-5.888l0.32-5.824
		h-0.464l-1.776,5.488l-1.744,5.488c-1.632,4.928-2.88,8.568-3.744,10.912l-17.312,44.416h-13.6l-17.504-44.08
		c-0.96-2.4-2.224-6.064-3.808-10.912l-1.792-5.488l-1.792-5.424h-0.464l0.288,5.712l0.288,5.76
		c0.224,4.448,0.336,8.288,0.336,11.488v42.928h-14.944V311.84h24.352l14.08,36.448c0.976,2.544,2.224,6.176,3.808,10.912
		l1.712,5.488l1.776,5.424h0.528l1.68-5.424l1.712-5.424c1.44-4.576,2.656-8.192,3.68-10.848l13.84-36.576H340.752z"/>
	<path style="fill:#FFFFFF;" d="M369.552,311.84v65.36h36.928v13.392h-51.872V311.84H369.552z"/>
</g>
</svg>